<svg width="256" height="256" viewBox="0 0 256 256" fill="none" xmlns="http://www.w3.org/2000/svg">
<g clip-path="url(#clip0_14_346)">
<mask id="mask0_14_346" style="mask-type:luminance" maskUnits="userSpaceOnUse" x="0" y="0" width="256" height="256">
<path d="M256 0H0V256H256V0Z" fill="white"/>
</mask>
<g mask="url(#mask0_14_346)">
<path d="M199.964 220.037C193.518 223.719 173.426 235.132 156.137 244.948C138.84 254.769 117.635 254.67 100.425 244.697L75.6467 230.337L216.549 149.265C239.819 163.084 235.307 199.848 199.964 220.037Z" fill="#5F5F5F"/>
<path fill-rule="evenodd" clip-rule="evenodd" d="M113.696 146.89C112.361 147.659 112.361 149.585 113.696 150.355L201.307 200.888C205.636 203.528 212.47 211.57 198.264 221.016C198.956 220.596 199.67 220.174 200.405 219.75C239.514 197.193 236.751 162.896 218.717 150.403C218.126 150.017 217.519 149.642 216.897 149.28C215.699 148.583 213.062 147.004 209.421 144.825C199.428 138.844 181.879 128.342 165.826 119.139C164.593 118.432 163.079 118.436 161.847 119.146L113.696 146.89Z" fill="#0D0D0D"/>
<path fill-rule="evenodd" clip-rule="evenodd" d="M20.0258 137.019C18.0249 135.865 15.5256 137.31 15.5273 139.62L15.556 177.244C15.5647 188.668 21.6627 199.221 31.556 204.933L100.799 244.91C118.124 254.913 139.468 254.914 156.794 244.913L181.963 230.386L181.96 230.384L198.651 220.788C185.742 228.204 174.246 225.721 168.167 222.431L20.0258 137.019Z" fill="#0D0D0D"/>
<path d="M52.0847 34.5937C58.53 30.912 78.6223 19.4991 95.9112 9.68311C113.208 -0.137588 134.414 -0.0388017 151.623 9.9347L176.402 24.2947L35.4989 105.366C12.2298 91.5477 16.7412 54.7832 52.0847 34.5937Z" fill="#5F5F5F"/>
<path fill-rule="evenodd" clip-rule="evenodd" d="M138.352 107.742C139.687 106.973 139.687 105.046 138.353 104.276L50.7413 53.7431C46.4118 51.1029 39.578 43.061 53.7842 33.6152C53.0921 34.0354 52.3786 34.4575 51.6433 34.8816C12.5341 57.4379 15.2969 91.7355 33.3316 104.228C33.9222 104.614 34.5288 104.989 35.1513 105.351C36.3488 106.048 38.9865 107.627 42.6269 109.806C52.6201 115.787 70.1688 126.29 86.2224 135.492C87.4551 136.199 88.9697 136.195 90.2008 135.486L138.352 107.742Z" fill="#0D0D0D"/>
<path fill-rule="evenodd" clip-rule="evenodd" d="M232.023 117.613C234.023 118.766 236.523 117.321 236.521 115.012L236.492 77.3873C236.484 65.9635 230.386 55.4107 220.492 49.6988L151.249 9.72109C133.924 -0.281259 112.58 -0.282433 95.2542 9.71803L70.0853 24.2457L70.0881 24.2473L53.3977 33.8433C66.3067 26.4269 77.8025 28.9103 83.8815 32.2L232.023 117.613Z" fill="#0D0D0D"/>
</g>
</g>
<defs>
<clipPath id="clip0_14_346">
<rect width="256" height="256" fill="white"/>
</clipPath>
</defs>
</svg>
