<svg width="256" height="262" viewBox="0 0 256 262" fill="none" xmlns="http://www.w3.org/2000/svg">
<g data-figma-bg-blur-radius="42">
<path d="M199.964 225.819C193.519 229.501 173.427 240.914 156.138 250.73C138.841 260.55 117.635 260.451 100.426 250.478L75.6472 236.118L216.55 155.047C239.819 168.865 235.308 205.629 199.964 225.819Z" fill="white" fill-opacity="0.7" style="fill:white;fill-opacity:0.7;"/>
<path d="M199.964 225.819C193.519 229.501 173.427 240.914 156.138 250.73C138.841 260.55 117.635 260.451 100.426 250.478L75.6472 236.118L216.55 155.047C239.819 168.865 235.308 205.629 199.964 225.819Z" fill="url(#paint0_linear_6766_57610)" fill-opacity="0.15"/>
</g>
<g filter="url(#filter1_d_6766_57610)" data-figma-bg-blur-radius="42">
<path fill-rule="evenodd" clip-rule="evenodd" d="M113.697 152.671C112.362 153.44 112.361 155.367 113.696 156.136L201.307 206.67C205.637 209.31 212.47 217.352 198.264 226.797C198.956 226.377 199.67 225.955 200.405 225.531C239.514 202.975 236.752 168.677 218.717 156.185C218.126 155.798 217.52 155.424 216.897 155.061C215.7 154.364 213.062 152.786 209.422 150.607C199.428 144.626 181.88 134.123 165.826 124.921C164.593 124.214 163.079 124.218 161.848 124.927L113.697 152.671Z" fill="white" fill-opacity="0.8" style="fill:white;fill-opacity:0.8;" shape-rendering="crispEdges"/>
<path fill-rule="evenodd" clip-rule="evenodd" d="M113.697 152.671C112.362 153.44 112.361 155.367 113.696 156.136L201.307 206.67C205.637 209.31 212.47 217.352 198.264 226.797C198.956 226.377 199.67 225.955 200.405 225.531C239.514 202.975 236.752 168.677 218.717 156.185C218.126 155.798 217.52 155.424 216.897 155.061C215.7 154.364 213.062 152.786 209.422 150.607C199.428 144.626 181.88 134.123 165.826 124.921C164.593 124.214 163.079 124.218 161.848 124.927L113.697 152.671Z" fill="url(#paint1_linear_6766_57610)" shape-rendering="crispEdges"/>
</g>
<g data-figma-bg-blur-radius="42">
<path fill-rule="evenodd" clip-rule="evenodd" d="M20.0261 142.8C18.0252 141.646 15.5258 143.092 15.5276 145.401L15.5562 183.025C15.5649 194.449 21.6629 205.002 31.5562 210.714L100.8 250.692C118.124 260.694 139.469 260.695 156.794 250.695L181.963 236.167L181.96 236.165L198.651 226.569C185.742 233.986 174.246 231.502 168.167 228.213L20.0261 142.8Z" fill="white" fill-opacity="0.8" style="fill:white;fill-opacity:0.8;"/>
<path fill-rule="evenodd" clip-rule="evenodd" d="M20.0261 142.8C18.0252 141.646 15.5258 143.092 15.5276 145.401L15.5562 183.025C15.5649 194.449 21.6629 205.002 31.5562 210.714L100.8 250.692C118.124 260.694 139.469 260.695 156.794 250.695L181.963 236.167L181.96 236.165L198.651 226.569C185.742 233.986 174.246 231.502 168.167 228.213L20.0261 142.8Z" fill="url(#paint2_linear_6766_57610)"/>
</g>
<g data-figma-bg-blur-radius="42">
<path d="M52.0847 40.3753C58.53 36.6935 78.6223 25.2806 95.9112 15.4646C113.208 5.64394 134.414 5.74273 151.623 15.7162L176.402 30.0762L35.4989 111.148C12.2298 97.3293 16.7412 60.5647 52.0847 40.3753Z" fill="white" fill-opacity="0.7" style="fill:white;fill-opacity:0.7;"/>
<path d="M52.0847 40.3753C58.53 36.6935 78.6223 25.2806 95.9112 15.4646C113.208 5.64394 134.414 5.74273 151.623 15.7162L176.402 30.0762L35.4989 111.148C12.2298 97.3293 16.7412 60.5647 52.0847 40.3753Z" fill="url(#paint3_linear_6766_57610)" fill-opacity="0.15"/>
</g>
<g data-figma-bg-blur-radius="42">
<path fill-rule="evenodd" clip-rule="evenodd" d="M138.352 113.523C139.687 112.754 139.687 110.828 138.353 110.058L50.7414 59.5246C46.4119 56.8844 39.5781 48.8426 53.7843 39.3968C53.0922 39.8169 52.3787 40.239 51.6434 40.6632C12.5342 63.2194 15.297 97.517 33.3317 110.009C33.9223 110.396 34.5289 110.77 35.1514 111.133C36.3489 111.83 38.9866 113.409 42.6271 115.587C52.6202 121.568 70.1689 132.071 86.2225 141.274C87.4552 141.98 88.9698 141.977 90.2009 141.267L138.352 113.523Z" fill="white" fill-opacity="0.8" style="fill:white;fill-opacity:0.8;"/>
<path fill-rule="evenodd" clip-rule="evenodd" d="M138.352 113.523C139.687 112.754 139.687 110.828 138.353 110.058L50.7414 59.5246C46.4119 56.8844 39.5781 48.8426 53.7843 39.3968C53.0922 39.8169 52.3787 40.239 51.6434 40.6632C12.5342 63.2194 15.297 97.517 33.3317 110.009C33.9223 110.396 34.5289 110.77 35.1514 111.133C36.3489 111.83 38.9866 113.409 42.6271 115.587C52.6202 121.568 70.1689 132.071 86.2225 141.274C87.4552 141.98 88.9698 141.977 90.2009 141.267L138.352 113.523Z" fill="url(#paint4_linear_6766_57610)"/>
</g>
<g filter="url(#filter5_d_6766_57610)" data-figma-bg-blur-radius="42">
<path fill-rule="evenodd" clip-rule="evenodd" d="M232.023 123.394C234.023 124.548 236.523 123.103 236.521 120.793L236.492 83.1688C236.484 71.745 230.386 61.1922 220.492 55.4803L151.249 15.5026C133.924 5.50025 112.58 5.49908 95.2542 15.4995L70.0853 30.0272L70.0882 30.0288L53.3978 39.6248C66.3067 32.2084 77.8025 34.6918 83.8815 37.9815L232.023 123.394Z" fill="white" fill-opacity="0.8" style="fill:white;fill-opacity:0.8;" shape-rendering="crispEdges"/>
<path fill-rule="evenodd" clip-rule="evenodd" d="M232.023 123.394C234.023 124.548 236.523 123.103 236.521 120.793L236.492 83.1688C236.484 71.745 230.386 61.1922 220.492 55.4803L151.249 15.5026C133.924 5.50025 112.58 5.49908 95.2542 15.4995L70.0853 30.0272L70.0882 30.0288L53.3978 39.6248C66.3067 32.2084 77.8025 34.6918 83.8815 37.9815L232.023 123.394Z" fill="url(#paint5_linear_6766_57610)" shape-rendering="crispEdges"/>
</g>
<defs>
<clipPath id="bgblur_0_6766_57610_clip_path" transform="translate(-33.6472 -113.047)"><path d="M199.964 225.819C193.519 229.501 173.427 240.914 156.138 250.73C138.841 260.55 117.635 260.451 100.426 250.478L75.6472 236.118L216.55 155.047C239.819 168.865 235.308 205.629 199.964 225.819Z"/>
</clipPath><filter id="filter1_d_6766_57610" x="70.6951" y="82.3928" width="202.7" height="186.405" filterUnits="userSpaceOnUse" color-interpolation-filters="sRGB">
<feFlood flood-opacity="0" result="BackgroundImageFix"/>
<feColorMatrix in="SourceAlpha" type="matrix" values="0 0 0 0 0 0 0 0 0 0 0 0 0 0 0 0 0 0 127 0" result="hardAlpha"/>
<feOffset dy="4"/>
<feGaussianBlur stdDeviation="6"/>
<feComposite in2="hardAlpha" operator="out"/>
<feColorMatrix type="matrix" values="0 0 0 0 0 0 0 0 0 0 0 0 0 0 0 0 0 0 0.25 0"/>
<feBlend mode="normal" in2="BackgroundImageFix" result="effect1_dropShadow_6766_57610"/>
<feBlend mode="normal" in="SourceGraphic" in2="effect1_dropShadow_6766_57610" result="shape"/>
</filter>
<clipPath id="bgblur_1_6766_57610_clip_path" transform="translate(-70.6951 -82.3928)"><path fill-rule="evenodd" clip-rule="evenodd" d="M113.697 152.671C112.362 153.44 112.361 155.367 113.696 156.136L201.307 206.67C205.637 209.31 212.47 217.352 198.264 226.797C198.956 226.377 199.67 225.955 200.405 225.531C239.514 202.975 236.752 168.677 218.717 156.185C218.126 155.798 217.52 155.424 216.897 155.061C215.7 154.364 213.062 152.786 209.422 150.607C199.428 144.626 181.88 134.123 165.826 124.921C164.593 124.214 163.079 124.218 161.848 124.927L113.697 152.671Z"/>
</clipPath><clipPath id="bgblur_2_6766_57610_clip_path" transform="translate(26.4724 -100.394)"><path fill-rule="evenodd" clip-rule="evenodd" d="M20.0261 142.8C18.0252 141.646 15.5258 143.092 15.5276 145.401L15.5562 183.025C15.5649 194.449 21.6629 205.002 31.5562 210.714L100.8 250.692C118.124 260.694 139.469 260.695 156.794 250.695L181.963 236.167L181.96 236.165L198.651 226.569C185.742 233.986 174.246 231.502 168.167 228.213L20.0261 142.8Z"/>
</clipPath><clipPath id="bgblur_3_6766_57610_clip_path" transform="translate(20.9021 33.8329)"><path d="M52.0847 40.3753C58.53 36.6935 78.6223 25.2806 95.9112 15.4646C113.208 5.64394 134.414 5.74273 151.623 15.7162L176.402 30.0762L35.4989 111.148C12.2298 97.3293 16.7412 60.5647 52.0847 40.3753Z"/>
</clipPath><clipPath id="bgblur_4_6766_57610_clip_path" transform="translate(21.3469 2.60321)"><path fill-rule="evenodd" clip-rule="evenodd" d="M138.352 113.523C139.687 112.754 139.687 110.828 138.353 110.058L50.7414 59.5246C46.4119 56.8844 39.5781 48.8426 53.7843 39.3968C53.0922 39.8169 52.3787 40.239 51.6434 40.6632C12.5342 63.2194 15.297 97.517 33.3317 110.009C33.9223 110.396 34.5289 110.77 35.1514 111.133C36.3489 111.83 38.9866 113.409 42.6271 115.587C52.6202 121.568 70.1689 132.071 86.2225 141.274C87.4552 141.98 88.9698 141.977 90.2009 141.267L138.352 113.523Z"/>
</clipPath><filter id="filter5_d_6766_57610" x="11.3977" y="-34" width="267.123" height="199.8" filterUnits="userSpaceOnUse" color-interpolation-filters="sRGB">
<feFlood flood-opacity="0" result="BackgroundImageFix"/>
<feColorMatrix in="SourceAlpha" type="matrix" values="0 0 0 0 0 0 0 0 0 0 0 0 0 0 0 0 0 0 127 0" result="hardAlpha"/>
<feOffset dy="4"/>
<feGaussianBlur stdDeviation="6"/>
<feComposite in2="hardAlpha" operator="out"/>
<feColorMatrix type="matrix" values="0 0 0 0 0 0 0 0 0 0 0 0 0 0 0 0 0 0 0.25 0"/>
<feBlend mode="normal" in2="BackgroundImageFix" result="effect1_dropShadow_6766_57610"/>
<feBlend mode="normal" in="SourceGraphic" in2="effect1_dropShadow_6766_57610" result="shape"/>
</filter>
<clipPath id="bgblur_5_6766_57610_clip_path" transform="translate(-11.3977 34)"><path fill-rule="evenodd" clip-rule="evenodd" d="M232.023 123.394C234.023 124.548 236.523 123.103 236.521 120.793L236.492 83.1688C236.484 71.745 230.386 61.1922 220.492 55.4803L151.249 15.5026C133.924 5.50025 112.58 5.49908 95.2542 15.4995L70.0853 30.0272L70.0882 30.0288L53.3978 39.6248C66.3067 32.2084 77.8025 34.6918 83.8815 37.9815L232.023 123.394Z"/>
</clipPath><linearGradient id="paint0_linear_6766_57610" x1="174.313" y1="240.63" x2="147.693" y2="194.523" gradientUnits="userSpaceOnUse">
<stop style="stop-color:black;stop-opacity:1;"/>
<stop offset="0.505208" stop-opacity="0" style="stop-color:none;stop-opacity:0;"/>
</linearGradient>
<linearGradient id="paint1_linear_6766_57610" x1="198.963" y1="144.143" x2="172.045" y2="189.939" gradientUnits="userSpaceOnUse">
<stop stop-color="white" style="stop-color:white;stop-opacity:1;"/>
<stop offset="0.515211" stop-color="white" stop-opacity="0" style="stop-color:none;stop-opacity:0;"/>
</linearGradient>
<linearGradient id="paint2_linear_6766_57610" x1="97.0398" y1="186.867" x2="71.0703" y2="233.78" gradientUnits="userSpaceOnUse">
<stop stop-color="white" style="stop-color:white;stop-opacity:1;"/>
<stop offset="0.533805" stop-color="white" stop-opacity="0" style="stop-color:none;stop-opacity:0;"/>
</linearGradient>
<linearGradient id="paint3_linear_6766_57610" x1="77.7362" y1="25.5643" x2="104.356" y2="71.6716" gradientUnits="userSpaceOnUse">
<stop style="stop-color:black;stop-opacity:1;"/>
<stop offset="0.545059" stop-opacity="0" style="stop-color:none;stop-opacity:0;"/>
</linearGradient>
<linearGradient id="paint4_linear_6766_57610" x1="52.0818" y1="120.966" x2="80.0033" y2="76.2872" gradientUnits="userSpaceOnUse">
<stop offset="0.511253" stop-color="white" stop-opacity="0" style="stop-color:none;stop-opacity:0;"/>
<stop offset="1" stop-color="white" style="stop-color:white;stop-opacity:1;"/>
</linearGradient>
<linearGradient id="paint5_linear_6766_57610" x1="182.293" y1="31.724" x2="157.003" y2="80.1791" gradientUnits="userSpaceOnUse">
<stop stop-color="white" style="stop-color:white;stop-opacity:1;"/>
<stop offset="0.505208" stop-color="white" stop-opacity="0" style="stop-color:none;stop-opacity:0;"/>
</linearGradient>
</defs>
</svg>
